# xmcd
#
# Track frame offsets:
#	150
#	29655
#	54342
#	75832
#	96672
#	116945
#	135305
#	159547
#	182292
#	196962
#
# Disc length: 2805 seconds
#
# Revision: 0
# Processed by: cddbd v1.5.2PL0 Copyright (c) Steve Scherf et al.
# Submitted via: audiograbber 1.83.01
#
DISCID=7c0af30a
DTITLE=Loveland - Pilgrim Soul
DYEAR=2002
DGENRE=Twang
TTITLE0=Angel
TTITLE1=Ground kitty stew
TTITLE2=Back that way again
TTITLE3=Only forward
TTITLE4=X's for I's
TTITLE5=Having Jasper's dream
TTITLE6=Dimes and marbles
TTITLE7=This ol' garden
TTITLE8=No cheese no radio
TTITLE9=When You Are Old
EXTD=
EXTT0=
EXTT1=
EXTT2=
EXTT3=
EXTT4=
EXTT5=
EXTT6=
EXTT7=
EXTT8=
EXTT9=
PLAYORDER=
